<svg xmlns="http://www.w3.org/2000/svg" width="300" height="100" version="1.0" viewBox="0 0 224.88 75"><defs><clipPath id="a"><path d="M7.496 20.164h97.336V53.68H7.496zm0 0"/></clipPath><clipPath id="b"><path d="M10.133 20.164h92.062a2.636 2.636 0 0 1 2.637 2.637v28.242a2.636 2.636 0 0 1-2.637 2.637H10.133a2.636 2.636 0 0 1-2.637-2.637V22.801a2.636 2.636 0 0 1 2.637-2.637zm0 0"/></clipPath></defs><g clip-path="url(#a)"><g clip-path="url(#b)"><path d="M7.496 20.164h97.336V53.68H7.496zm0 0"/></g></g><path fill="#fff" d="M22.405 28.738c2.707 0 4.813.68 6.313 2.03l-2.11 2.126a5.275 5.275 0 0 0-1.937-1.172 6.946 6.946 0 0 0-2.266-.39c-1.625 0-2.953.554-3.984 1.656-1.024 1.105-1.532 2.468-1.532 4.093 0 1.774.508 3.211 1.532 4.313 1.03 1.105 2.363 1.656 4 1.656 1.488 0 2.738-.273 3.75-.828v-3.797h-3.297v-2.594h6.156v8.219c-1.98 1.063-4.187 1.594-6.625 1.594-2.492 0-4.531-.77-6.125-2.313-1.594-1.539-2.39-3.562-2.39-6.062 0-2.551.773-4.61 2.328-6.172 1.562-1.57 3.625-2.36 6.187-2.36zm14.602.422v6.406h7.515v-6.407h2.875v16.079h-2.875v-7.094h-7.515v7.094h-2.86V29.159zm31.901 8.015c0 2.5-.808 4.54-2.422 6.11-1.617 1.574-3.683 2.359-6.203 2.359-2.468 0-4.496-.774-6.078-2.328-1.574-1.551-2.36-3.567-2.36-6.047 0-1.633.349-3.098 1.048-4.39a7.571 7.571 0 0 1 3.015-3.048c1.313-.726 2.828-1.093 4.547-1.093 2.5 0 4.531.765 6.094 2.296 1.57 1.532 2.36 3.579 2.36 6.141zm-14.062-.094c0 1.742.508 3.172 1.531 4.297 1.02 1.117 2.348 1.672 3.984 1.672 1.614 0 2.942-.547 3.985-1.64 1.039-1.094 1.562-2.536 1.562-4.329 0-1.644-.515-3.015-1.547-4.11-1.03-1.093-2.375-1.64-4.03-1.64-1.555 0-2.856.543-3.907 1.625-1.055 1.074-1.578 2.45-1.578 4.125zm23.866-8.343c1.875 0 3.41.558 4.61 1.671l-2.094 2.204c-.617-.852-1.555-1.282-2.813-1.282-.812 0-1.46.188-1.937.563-.469.367-.703.867-.703 1.5 0 .554.21.992.64 1.312.438.324 1.055.617 1.86.875 1.594.492 2.68.934 3.265 1.328a4.32 4.32 0 0 1 1.375 1.454c.333.574.5 1.292.5 2.156 0 1.554-.539 2.797-1.609 3.734-1.074.93-2.46 1.39-4.156 1.39-2.367 0-4.164-.722-5.39-2.171l2.155-2.094c.352.531.805.945 1.36 1.235a3.897 3.897 0 0 0 1.828.437c.832 0 1.508-.21 2.031-.64.52-.426.781-.946.781-1.563 0-.602-.218-1.086-.656-1.453-.437-.364-1.183-.703-2.234-1.016-1.344-.426-2.32-.832-2.922-1.219-.605-.394-1.059-.875-1.36-1.437-.304-.57-.453-1.274-.453-2.11 0-1.457.547-2.632 1.641-3.53 1.094-.895 2.52-1.344 4.281-1.344zm20.484.422v2.578h-4.922v13.5h-2.86v-13.5h-4.937v-2.579zm0 0"/><path d="M116.915 28.738c2.257 0 4.14.851 5.64 2.546l-2.219 1.641c-1-1.062-2.132-1.594-3.39-1.594-1.625 0-2.953.555-3.985 1.657-1.023 1.105-1.53 2.468-1.53 4.093 0 1.742.507 3.172 1.53 4.297 1.032 1.117 2.36 1.672 3.985 1.672 1.375 0 2.578-.648 3.61-1.953l2.359 1.687c-.7.98-1.579 1.704-2.641 2.172a8.35 8.35 0 0 1-3.36.688c-2.523 0-4.57-.785-6.14-2.36-1.563-1.57-2.344-3.578-2.344-6.015 0-2.531.774-4.582 2.328-6.156 1.563-1.583 3.614-2.375 6.157-2.375zm24.137 8.437c0 2.5-.808 4.54-2.422 6.11-1.617 1.574-3.683 2.359-6.203 2.359-2.468 0-4.496-.774-6.078-2.328-1.574-1.551-2.36-3.567-2.36-6.047 0-1.633.348-3.098 1.048-4.39a7.571 7.571 0 0 1 3.015-3.048c1.313-.726 2.828-1.093 4.547-1.093 2.5 0 4.531.765 6.094 2.296 1.57 1.532 2.36 3.579 2.36 6.141zm-14.062-.094c0 1.742.508 3.172 1.531 4.297 1.02 1.117 2.348 1.672 3.984 1.672 1.614 0 2.942-.547 3.985-1.64 1.039-1.094 1.562-2.536 1.562-4.329 0-1.644-.515-3.015-1.547-4.11-1.03-1.093-2.375-1.64-4.03-1.64-1.556 0-2.856.543-3.907 1.625-1.055 1.074-1.578 2.45-1.578 4.125zm20.577-7.921 7.782 11.937h.047V29.159h2.875v16.079h-3.641l-7.953-12.344h-.047v12.344h-2.86V29.159zm25.363 0v2.578h-4.922v13.5h-2.86v-13.5h-4.937v-2.579zm12.616 0v2.578h-7.797v3.953h7.39v2.593h-7.39v4.36h8.203v2.594H174.89V29.159zm7.019 0 7.782 11.937h.047V29.159h2.875v16.079h-3.641l-7.953-12.344h-.047v12.344h-2.86V29.159zm25.363 0v2.578h-4.922v13.5h-2.86v-13.5h-4.937v-2.579zm0 0"/></svg>