<svg width="125" height="24" viewBox="0 0 125 24" fill="none" xmlns="http://www.w3.org/2000/svg">
<g clip-path="url(#clip0_57_104)">
<path fill-rule="evenodd" clip-rule="evenodd" d="M62.0293 23.7539C66.0986 23.7539 69.0508 20.8086 69.0508 16.751V5.24707H66.2266L66.0156 6.22168L65.9951 6.31543L65.9209 6.25391C65.0723 5.55078 63.9648 5.20898 62.5361 5.20898C58.959 5.20898 56.0488 8.20898 56.0488 11.8965C56.0488 15.584 58.959 18.585 62.5361 18.585C63.4395 18.585 64.3076 18.4004 65.1152 18.0361L65.2373 17.9814L65.1953 18.1074C64.7461 19.4424 63.5342 20.3018 62.0332 20.3516C61.9697 20.3535 61.9082 20.3545 61.8506 20.3545C61.2676 20.3545 60.3906 20.2656 59.5049 19.4961L59.3359 19.3496L57.2607 21.7041L57.4102 21.8516C58.7295 23.1582 60.7305 23.7529 62.0303 23.7529H62.0293V23.7539ZM62.8369 15.0957C61.1787 15.0957 59.8301 13.6611 59.8301 11.8984C59.8301 10.1357 61.1787 8.70117 62.8369 8.70117C64.4951 8.70117 65.8437 10.1357 65.8437 11.8984C65.8437 13.6611 64.4951 15.0957 62.8369 15.0957Z" fill="#EB7100"/>
<path fill-rule="evenodd" clip-rule="evenodd" d="M48.3242 23.751C52.3916 23.751 55.3428 20.8066 55.3428 16.751V5.25H52.5234L52.3125 6.22266L52.291 6.32031L52.2139 6.25684C51.3652 5.55469 50.2588 5.21289 48.8301 5.21289C45.2539 5.21289 42.3447 8.21191 42.3447 11.8975C42.3447 15.583 45.2539 18.583 48.8301 18.583C49.7324 18.583 50.6006 18.3975 51.4082 18.0342L51.5352 17.9766L51.4912 18.1084C51.041 19.4443 49.8291 20.3047 48.3262 20.3535C48.2627 20.3555 48.2012 20.3564 48.1436 20.3564C47.5605 20.3564 46.6826 20.2666 45.7959 19.4971L45.6299 19.3525L43.5586 21.7041L43.707 21.8506C45.0264 23.1562 47.0254 23.751 48.3252 23.751H48.3242ZM49.1318 15.0986C47.4727 15.0986 46.1221 13.6631 46.1221 11.8984C46.1221 10.1338 47.4727 8.69824 49.1318 8.69824C50.791 8.69824 52.1416 10.1338 52.1416 11.8984C52.1416 13.6631 50.791 15.0986 49.1318 15.0986Z" fill="#EB7100"/>
<path fill-rule="evenodd" clip-rule="evenodd" d="M13.3301 13.9463L12.6836 14.374C11.7412 14.9971 10.6465 15.3272 9.51856 15.3272C6.34961 15.3272 3.77148 12.7471 3.77148 9.57715C3.77148 6.40723 6.34961 3.82715 9.51856 3.82715C10.6475 3.82715 11.7412 4.15625 12.6836 4.78028L13.3301 5.20801L15.001 2.34278L14.4395 1.95703C12.8994 0.901369 11.0977 0.343752 9.22949 0.343752C4.13965 0.340822 0 4.48438 0 9.57617C0 14.668 4.13965 18.8105 9.22949 18.8105C11.0967 18.8105 12.8994 18.2529 14.4395 17.1963L15.001 16.8105L13.3301 13.9453V13.9463Z" fill="#EB7100"/>
<path fill-rule="evenodd" clip-rule="evenodd" d="M26.3779 6.57324C25.3838 5.65625 23.9531 5.13867 22.1074 5.28125C21.1328 5.35645 20.1934 5.85937 19.8184 6.26758V0.176758L16.0098 0.837891V18.6152H19.8184V12.042C19.7441 9.41895 20.7305 8.78711 22.2158 8.78711C23.7012 8.78711 24.4697 9.7666 24.4697 11.8662V18.6084H28.1211V11.2324C28.1211 9.07129 27.4893 7.60059 26.377 6.57422" fill="#EB7100"/>
<path fill-rule="evenodd" clip-rule="evenodd" d="M35.2422 5.1709C31.6563 5.1709 28.8477 8.18359 28.8477 12.0283C28.8477 15.873 31.8213 18.8857 35.4766 18.8857C38.8857 18.8857 40.6533 16.4229 40.958 15.9531L38.6992 14.3965C37.8672 15.3027 36.8379 15.6914 35.4717 15.6152C34.8691 15.582 34.2715 15.3828 33.7861 15.0547C33.2549 14.6934 32.8838 14.1992 32.7129 13.624L32.6748 13.4941H41.5117C41.541 13.2812 41.6113 12.6943 41.6113 12.0283C41.6113 8.18359 38.8145 5.1709 35.2441 5.1709H35.2432H35.2422ZM32.3379 11.0146L32.3486 10.9033C32.4268 10.0977 32.7891 9.3623 33.3691 8.83203C33.9229 8.32617 34.6201 8.0459 35.332 8.0459C36.7412 8.0459 38.293 9.04883 38.3945 10.9062L38.4004 11.0137H32.3389L32.3379 11.0146Z" fill="#EB7100"/>
<path d="M80.7363 16.6748C82.7988 16.6748 84.7188 15.873 84.7188 13.8662C84.7188 9.34961 74.9531 12.001 74.9531 5.50098C74.9531 2.10059 77.6211 0.220703 81.0439 0.220703C83.1221 0.220703 85.3486 0.913086 86.9932 2.18848L85.8135 4.0293C84.6094 3.07715 82.7041 2.49512 81.1777 2.49512C79.25 2.49512 77.4941 3.41602 77.4941 5.28809C77.4941 9.72656 87.2998 7.00391 87.2998 13.6221C87.2998 17.2188 84.3955 18.9814 80.8232 18.9814C78.4541 18.9814 76.2988 18.21 74.418 16.7383L75.6143 14.8574C77.0937 16.0293 78.8877 16.6748 80.7373 16.6748H80.7363Z" fill="#EB7100"/>
<path d="M91.2363 12.9561V18.8184H88.7266V0.592773L91.2363 0.0976562V10.7354H91.9053L96.2422 5.99023H99.3672L94.0703 11.7979L99.8311 18.8174H96.7148L91.915 12.9551H91.2373L91.2363 12.9561Z" fill="#EB7100"/>
<path d="M100.779 2.44043C100.779 1.52246 101.523 0.77832 102.441 0.77832C103.359 0.77832 104.104 1.52246 104.104 2.44043C104.104 3.3584 103.359 4.10254 102.441 4.10254C101.523 4.10254 100.779 3.3584 100.779 2.44043ZM101.183 5.99121H103.692V18.8193H101.183V5.99121Z" fill="#EB7100"/>
<path d="M106.036 0.592773L108.538 0.0976562V15.2227C108.538 16.1904 108.712 16.7021 109.436 17.0713L109.105 19.0781C107.5 19.0781 106.036 18.1338 106.036 16.1191V0.592773Z" fill="#EB7100"/>
<path d="M110.878 0.592773L113.381 0.0976562V15.2227C113.381 16.1904 113.554 16.7021 114.277 17.0713L113.947 19.0781C112.342 19.0781 110.878 18.1338 110.878 16.1191V0.592773Z" fill="#EB7100"/>
<path d="M119.909 16.9531C121.129 16.9531 122.506 16.5674 122.506 15.3164C122.506 12.5234 115.651 14.2773 115.651 9.57227C115.651 6.96777 117.744 5.73242 120.317 5.73242C121.876 5.73242 123.379 6.18945 124.606 7.09375L123.591 8.77051C122.718 8.18848 121.498 7.81836 120.443 7.81836C119.31 7.81836 118.105 8.24316 118.105 9.40039C118.105 12.1631 124.999 10.5264 124.999 15.2002C124.999 17.876 122.74 19.0801 120.01 19.0801C118.074 19.0801 116.736 18.4746 115.162 17.3174L116.352 15.6963C117.437 16.4678 118.531 16.9551 119.908 16.9551V16.9531H119.909Z" fill="#EB7100"/>
</g>
<defs>
<clipPath id="clip0_57_104">
<rect width="125" height="23.9258" fill="white"/>
</clipPath>
</defs>
</svg>
