<svg width="93" height="30" viewBox="0 0 93 30" fill="none" xmlns="http://www.w3.org/2000/svg">
<g clip-path="url(#clip0_2_5)">
<path d="M7.12905 24.2272H12.5518C13.5327 24.2272 14.3452 23.9347 14.9898 23.3495C15.6344 22.7649 15.9567 21.9567 15.9567 20.9261C15.9567 19.8954 15.6479 19.0738 15.0318 18.4609C14.4147 17.8484 13.6161 17.5414 12.6357 17.5414H7.12905V24.2272ZM7.12905 5.75691V12.1084H11.8372C12.8741 12.1084 13.7078 11.8441 14.3384 11.3146C14.969 10.7856 15.2841 9.99811 15.2841 8.954C15.2841 7.9094 14.9686 7.11517 14.3384 6.57225C13.7078 6.02933 12.8736 5.75739 11.8372 5.75739H7.12905V5.75691ZM-0.0595703 0.324829H12.7621C15.7608 0.324829 18.1496 1.04952 19.9295 2.49795C21.7089 3.94638 22.5987 5.7852 22.5987 8.01396C22.5987 11.3295 20.6504 13.5712 16.7552 14.7415C18.7445 15.0206 20.3281 15.8427 21.5053 17.2067C22.6821 18.5721 23.2708 20.1735 23.2708 22.0124C23.2708 24.3524 22.409 26.2119 20.6856 27.5907C18.9621 28.9696 16.5588 29.6593 13.4762 29.6593H-0.0595703V0.324829Z" fill="black"/>
<path d="M34.7619 29.6593H27.5732V0.324829H34.7619V13.1947L44.5144 0.324829H53.9307L41.7821 14.9923L53.9307 29.6593H44.6828L34.7619 16.7055V29.6593Z" fill="black"/>
<path d="M72.461 21.1141C73.8756 19.5822 74.5839 17.5347 74.5839 14.9717C74.5839 12.4087 73.8756 10.3612 72.461 8.82883C71.0458 7.29695 69.154 6.53054 66.7859 6.53054C64.4178 6.53054 62.526 7.29743 61.1109 8.82883C59.6957 10.3612 58.9879 12.4087 58.9879 14.9717C58.9879 17.5352 59.6952 19.5827 61.1109 21.1141C62.526 22.6469 64.4178 23.4124 66.7859 23.4124C69.154 23.4124 71.0453 22.6464 72.461 21.1141ZM56.0664 25.7524C53.1377 22.9107 51.6738 19.317 51.6738 14.9712C51.6738 10.6255 53.1377 7.03892 56.0664 4.21066C58.9947 1.38335 62.5824 -0.0305481 66.8279 -0.0305481C71.0733 -0.0305481 74.6471 1.38383 77.5479 4.21066C80.4486 7.03892 81.8985 10.625 81.8985 14.9712C81.8985 19.3165 80.4409 22.9107 77.5266 25.7524C74.6119 28.5936 71.0386 30.0142 66.8071 30.0142C62.5747 30.0142 58.9947 28.5936 56.0664 25.7524Z" fill="black"/>
<path d="M92.6381 15.0609C92.6381 13.282 91.1872 11.8403 89.3981 11.8403C87.6091 11.8403 86.1582 13.282 86.1582 15.0609C86.1582 16.8393 87.6091 18.2815 89.3981 18.2815C91.1872 18.2815 92.6381 16.8393 92.6381 15.0609Z" fill="#0000FF"/>
</g>
<defs>
<clipPath id="clip0_2_5">
<rect width="93" height="30" fill="white"/>
</clipPath>
</defs>
</svg>
