<svg xmlns="http://www.w3.org/2000/svg" width="96.83" height="47.41" viewBox="0 0 96.83 47.41">
  <g id="Nero_Logo_black" data-name="Nero Logo black" transform="translate(0 0)">
    <path id="Pfad_37" data-name="Pfad 37" d="M59.658,40.121c2.78,0,3.44-.921,4.056-1.726l6.548.221v-2.2H55.283C55.283,38.557,56.878,40.121,59.658,40.121Z" transform="translate(-17.811 -14.74)" fill="#1b1b1b"/>
    <path id="Pfad_38" data-name="Pfad 38" d="M59.267,29.824a3.714,3.714,0,0,0-3.92,2.852h7.679C62.91,30.79,61.476,29.824,59.267,29.824Z" transform="translate(-17.807 -15.185)" fill="#1b1b1b"/>
    <path id="Pfad_39" data-name="Pfad 39" d="M92.459,30.061c-2.429,0-4.306,1.978-4.306,5.243,0,3.2,1.878,5.246,4.306,5.246s4.26-1.909,4.26-5.246C96.72,32.131,94.888,30.061,92.459,30.061Z" transform="translate(-15.593 -15.169)" fill="#1b1b1b"/>
    <path id="Pfad_40" data-name="Pfad 40" d="M20.18,16.11l.02,47.41,16.924-7.931h76.847a3.039,3.039,0,0,0,3.039-3.038V16.11ZM96.932,46.369c-6.694,0-12.1-4.028-12.1-10.133A9.063,9.063,0,0,1,86,31.767c-4.822-1.22-5.649,3.732-5.649,5.223v8.917H72.631V41.072c-1.8,3.682-5.945,5.3-10.855,5.3-5.2,0-9.058-2.046-10.772-5.574.013,3.213.03,5.112.03,5.112H43.3s.041-8.775,0-10.016c-.046-1.426.479-4.382-2.961-4.382-3.418,0-3.213,3.255-3.213,4.209V45.907H29.4V33.1c0-3.221-.138-4.531-.959-6.487l7.519.047a4.05,4.05,0,0,1,.558,1.552,9.523,9.523,0,0,1,6.3-1.99c2.822,0,7.542,1.043,8.112,5.885,1.668-3.527,5.55-5.977,10.937-5.977,5.179,0,9.207,2.328,10.761,6.266a16.464,16.464,0,0,0-.636-5.784l7.586.047a6.311,6.311,0,0,1,.47,2.576,6.265,6.265,0,0,1,6-3.014,15.032,15.032,0,0,1,2.314.391v2.356a13.345,13.345,0,0,1,8.568-2.838c6.694,0,12.212,3.888,12.212,10.11C109.144,42.572,103.626,46.369,96.932,46.369Z" transform="translate(-20.18 -16.11)" fill="#1b1b1b"/>
  </g>
</svg>
